<?xml version="1.0" encoding="UTF-8" standalone="no"?>
<!DOCTYPE svg PUBLIC "-//W3C//DTD SVG 1.1//EN" "http://www.w3.org/Graphics/SVG/1.1/DTD/svg11.dtd">
<!-- Generiert durch Microsoft Visio, SVG Export symbol_level.svg Zeichenblatt-1 -->
<svg xmlns="http://www.w3.org/2000/svg" xmlns:xlink="http://www.w3.org/1999/xlink" xmlns:ev="http://www.w3.org/2001/xml-events"
		width="1.69729in" height="1.28646in" viewBox="0 0 122.205 92.625" xml:space="preserve" color-interpolation-filters="sRGB"
		class="st6">
	<style type="text/css">
	<![CDATA[
		.st1 {fill:#004a82;stroke:none;stroke-linecap:round;stroke-linejoin:round;stroke-width:0.24}
		.st2 {fill:#004a82;stroke:none;stroke-linecap:round;stroke-linejoin:round;stroke-width:4.5}
		.st3 {fill:#ffffff;stroke:none;stroke-linecap:round;stroke-linejoin:round;stroke-width:4.5}
		.st4 {fill:#ffffff;stroke:none;stroke-linecap:round;stroke-linejoin:round;stroke-width:0.75}
		.st5 {fill:#004a82;stroke:none;stroke-linecap:round;stroke-linejoin:round;stroke-width:0.75}
		.st6 {fill:none;fill-rule:evenodd;font-size:12px;overflow:visible;stroke-linecap:square;stroke-miterlimit:3}
	]]>
	</style>

	<g>
		<title>Zeichenblatt-1</title>
		<g id="group226-1" transform="translate(0.12,-2.25)">
			<title>Tabelle.226</title>
			<g id="group187-2" transform="translate(7.99361E-015,-41.8196)">
				<title>Tabelle.187</title>
				<g id="shape167-3" transform="translate(136.278,57.9446) rotate(90)">
					<title>Kreisdiagrammbogen</title>
					<path d="M17.27 87.54 L17.25 92.62 A17.3402 17.3402 -180 0 0 17.44 57.94 L17.41 63.03 A12.251 12.251 0 0 1 17.27
								 87.54 Z" class="st1"/>
				</g>
				<g id="shape168-5" transform="translate(166.007,57.9446) rotate(90)">
					<title>Kreisdiagrammbogen.168</title>
					<path d="M17.41 87.54 L17.44 92.62 A17.3402 17.3402 -180 0 0 17.25 57.94 L17.27 63.03 A12.251 12.251 0 0 1 17.41
								 87.54 Z" class="st1"/>
				</g>
				<g id="shape176-7" transform="translate(13.9652,-1.10468)">
					<title>Tabelle.176</title>
					<path d="M11.25 87.02 A12.251 12.251 0 0 1 5.09 76.32 L0 76.3 A17.3402 17.3402 -180 0 0 11.25 92.62 L11.25 87.02
								 Z" class="st1"/>
				</g>
				<g id="shape178-9" transform="translate(29.7152,-2.84217E-014)">
					<title>Tabelle.178</title>
					<path d="M0 87.43 L0 92.55 A17.3402 17.3402 -180 0 0 18.93 75.19 L13.84 75.22 A12.251 12.251 0 0 1 -0 87.43 Z"
							class="st1"/>
				</g>
				<g id="shape179-11" transform="translate(25.2152,-0.0730673)">
					<title>Tabelle.179</title>
					<path d="M4.5 87.51 A12.251 12.251 0 0 1 -0 85.99 L0 91.59 A17.3402 17.3402 -180 0 0 4.5 92.62 L4.5 87.51 Z"
							class="st1"/>
				</g>
				<g id="shape181-13" transform="translate(103.035,-8.52651E-014)">
					<title>Tabelle.181</title>
					<path d="M18.93 87.43 A12.251 12.251 0 0 1 5.09 75.22 L0 75.19 A17.3402 17.3402 -180 0 0 18.93 92.55 L18.93 87.43
								 Z" class="st1"/>
				</g>
				<g id="shape186-15" transform="translate(18.9304,-0.0883016) scale(-1,1)">
					<title>Tabelle.186</title>
					<path d="M18.93 87.43 A12.251 12.251 0 0 1 5.09 75.22 L0 75.19 A17.3402 17.3402 -180 0 0 18.93 92.55 L18.93 87.43
								 Z" class="st1"/>
				</g>
			</g>
			<g id="group196-17" transform="translate(7.99361E-015,-41.8196)">
				<title>Tabelle.196</title>
				<g id="shape201-18" transform="translate(25.2152,-0.0730673)">
					<title>Tabelle.201</title>
					<path d="M4.5 87.51 A12.251 12.251 0 0 1 -0 85.99 L0 91.59 A17.3402 17.3402 -180 0 0 4.5 92.62 L4.5 87.51 Z"
							class="st2"/>
				</g>
			</g>
			<g id="shape210-20" transform="translate(68.0316,-43.3125)">
				<title>Tabelle.210</title>
				<path d="M5.01 89.25 A17.3402 17.3402 0 0 1 0 92.62 L7.81 92.62 L7.81 89.25 L5.01 89.25 Z" class="st3"/>
			</g>
			<g id="shape211-22" transform="translate(58.9652,4.26326E-014)">
				<title>Tabelle.211</title>
				<path d="M14.07 45.94 L16.87 45.94 L16.87 49.31 L9.07 49.31 A17.3402 17.3402 0 0 1 -0 50.69 L0 59.44 L11.25 59.44
							 L11.25 62.81 L0 62.81 L0 72.94 L16.87 72.94 L16.87 76.31 L0 76.31 L0 92.62 L27 92.62 L27 50.14 A17.3402
							 17.3402 0 0 1 16.89 42.39 A17.3402 17.3402 0 0 1 14.07 45.94 Z" class="st2"/>
			</g>
			<g id="shape216-24" transform="translate(58.9652,-50.4445)">
				<title>Tabelle.216</title>
				<path d="M10.42 86.26 L0 86.26 L0 92.39 A8.71528 8.71528 -180 0 0 10.42 86.26 Z" class="st2"/>
			</g>
			<g id="shape219-26" transform="translate(70.0746,-59.0625)">
				<title>Tabelle.219</title>
				<path d="M0 91.5 L0 92.62 L11.91 92.62 A8.736 8.736 0 0 1 11.91 92.48 L8.26 92.46 L8.26 92.43 L5.78 92.45 L3.31 92.43
							 L3.31 92.46 L0.14 92.48 L0.14 91.5 L0 91.5 Z" class="st4"/>
			</g>
			<g id="shape225-28" transform="translate(58.9652,-51.8328)">
				<title>Tabelle.225</title>
				<path d="M23.03 84.27 L23.03 85.4 L23.02 85.4 A8.736 8.736 -180 0 0 27 92.62 L27 54.46 L0 54.46 L0 70.77 L16.87 70.77
							 L16.87 74.15 L0 74.15 L0 84.27 L11.07 84.27 L11.07 83 L23.03 83 L23.03 83.67 L23.03 84.27 Z"
						class="st5"/>
			</g>
		</g>
	</g>
</svg>
