<?xml version="1.0" encoding="UTF-8" standalone="no"?>
<!DOCTYPE svg PUBLIC "-//W3C//DTD SVG 1.1//EN" "http://www.w3.org/Graphics/SVG/1.1/DTD/svg11.dtd">
<!-- Generiert durch Microsoft Visio, SVG Export symbol_humidity.svg Zeichenblatt-1 -->
<svg xmlns="http://www.w3.org/2000/svg" xmlns:xlink="http://www.w3.org/1999/xlink" xmlns:ev="http://www.w3.org/2001/xml-events"
		width="1.10185in" height="1.10156in" viewBox="0 0 79.333 79.3125" xml:space="preserve" color-interpolation-filters="sRGB"
		class="st4">
	<style type="text/css">
	<![CDATA[
		.st1 {fill:#004a82;stroke:none;stroke-linecap:round;stroke-linejoin:round;stroke-width:0.75}
		.st2 {stroke:none;stroke-linecap:round;stroke-linejoin:round;stroke-width:0.75}
		.st3 {fill:#004a82;font-family:Calibri;font-size:3.99971em}
		.st4 {fill:none;fill-rule:evenodd;font-size:12px;overflow:visible;stroke-linecap:square;stroke-miterlimit:3}
	]]>
	</style>

	<g>
		<title>Zeichenblatt-1</title>
		<g id="shape126-1" transform="translate(49.5181,-32.8108)">
			<title>Tabelle.126</title>
			<path d="M1.48 61.62 C1.2 62.09 0.98 62.56 0.76 63.06 C-1.83 69.53 2.39 76.53 10.2 78.68 C18.01 80.87 26.44 77.34 29.04
						 70.87 C30.1 68.28 30.07 65.43 28.97 62.84 C28.91 62.71 28.85 62.59 28.79 62.43 L15.51 32.81 L1.48 61.62
						 Z" class="st1"/>
		</g>
		<g id="shape127-3" transform="translate(7.08988,-3.0999)">
			<title>Tabelle.127</title>
			<desc>%</desc>
			<path d="M51.94 21.71 L0 21.71 L0 79.31 L51.94 79.31 L51.94 21.71" class="st2"/>
			<text x="8.81" y="64.91" class="st3">%</text>		</g>
		<g id="shape128-7">
			<title>Tabelle.128</title>
			<path d="M50.44 23.44 L54.13 18.5 C39.16 7.28 17.92 10.37 6.73 25.37 C-4.45 40.37 -1.39 61.59 13.61 72.78 C28.6 83.99
						 49.81 80.9 61.03 65.9 C64.75 60.93 67.03 55 67.59 48.81 L61.47 48.22 C60.03 63.46 46.53 74.65 31.29 73.21
						 C16.04 71.81 4.86 58.28 6.3 43.06 C7.73 27.81 21.23 16.62 36.44 18.06 C41.53 18.53 46.38 20.37 50.44 23.44
						 Z" class="st1"/>
		</g>
	</g>
</svg>
