<?xml version="1.0" encoding="UTF-8" standalone="no"?>
<!DOCTYPE svg PUBLIC "-//W3C//DTD SVG 1.1//EN" "http://www.w3.org/Graphics/SVG/1.1/DTD/svg11.dtd">
<!-- Generiert durch Microsoft Visio, SVG Export sun.svg Zeichenblatt-1 -->
<svg xmlns="http://www.w3.org/2000/svg" xmlns:xlink="http://www.w3.org/1999/xlink" xmlns:ev="http://www.w3.org/2001/xml-events"
		width="1.61531in" height="1.61531in" viewBox="0 0 116.302 116.302" xml:space="preserve" color-interpolation-filters="sRGB"
		class="st2">
	<style type="text/css">
	<![CDATA[
		.st1 {fill:#004a82;stroke:none;stroke-linecap:butt;stroke-width:0.1}
		.st2 {fill:none;fill-rule:evenodd;font-size:12px;overflow:visible;stroke-linecap:square;stroke-miterlimit:3}
	]]>
	</style>

	<g>
		<title>Zeichenblatt-1</title>
		<g id="shape55-1" transform="translate(0.1,116.402) scale(1,-1)">
			<title>path30</title>
			<path d="M55.18 20.01 L55.18 0.2 L60.37 0.2 L60.37 20.01 L55.18 20.01 ZM36.5 26.83 L26.92 9.49 L31.46 6.98 L41.03 24.33
						 L36.5 26.83 ZM79.64 26.94 L75.14 24.36 L85.01 7.2 L89.51 9.81 L79.64 26.94 ZM92.77 42.76 L90.23 38.22 L107.5
						 28.61 L110.04 33.18 L92.77 42.76 ZM22.53 43.88 L5.8 33.4 L8.53 28.97 L25.25 39.49 L22.53 43.88 ZM96.36 62.1
						 L96.36 56.87 L116.1 56.87 L116.1 62.1 L96.36 62.1 ZM0 62.39 L0 57.2 L19.74 57.2 L19.74 62.39 L0 62.39 ZM106.59
						 89.89 L89.51 79.98 L92.08 75.45 L109.17 85.35 L106.59 89.89 ZM58.12 90.5 C40.42 90.5 26.05 76.09 26.05 58.32
						 C26.05 40.56 40.42 26.14 58.12 26.14 C75.81 26.14 90.16 40.56 90.16 58.32 C90.16 76.09 75.81 90.5 58.12
						 90.5 ZM10.05 91.27 L7.51 86.69 L24.74 77.12 L27.28 81.65 L10.05 91.27 ZM83.92 110.13 L74.34 92.83 L78.91
						 90.29 L88.45 107.59 L83.92 110.13 ZM32.62 110.64 L28.23 107.88 L38.67 91.12 L43.07 93.84 L32.62 110.64 ZM55.51
						 116.3 L55.51 96.49 L60.7 96.49 L60.7 116.3 L55.51 116.3 Z" class="st1"/>
		</g>
	</g>
</svg>
