<?xml version="1.0" encoding="UTF-8" standalone="no"?>
<!DOCTYPE svg PUBLIC "-//W3C//DTD SVG 1.1//EN" "http://www.w3.org/Graphics/SVG/1.1/DTD/svg11.dtd">
<!-- Generiert durch Microsoft Visio, SVG Export symbol_discharge.svg Zeichenblatt-1 -->
<svg xmlns="http://www.w3.org/2000/svg" xmlns:xlink="http://www.w3.org/1999/xlink" xmlns:ev="http://www.w3.org/2001/xml-events"
		width="1.26058in" height="1.26042in" viewBox="0 0 90.7618 90.75" xml:space="preserve" color-interpolation-filters="sRGB"
		class="st3">
	<style type="text/css">
	<![CDATA[
		.st1 {fill:none;stroke:none;stroke-linecap:round;stroke-linejoin:round;stroke-width:0.75}
		.st2 {fill:#004a82;stroke:none;stroke-linecap:round;stroke-linejoin:round;stroke-width:0.24}
		.st3 {fill:none;fill-rule:evenodd;font-size:12px;overflow:visible;stroke-linecap:square;stroke-miterlimit:3}
	]]>
	</style>

	<g>
		<title>Zeichenblatt-1</title>
		<g id="shape308-1" transform="translate(0.375,-0.375)">
			<title>Tabelle.308</title>
			<rect x="0" y="0.75" width="90" height="90" class="st1"/>
		</g>
		<g id="shape346-3" transform="translate(0.375,-42.6991)">
			<title>Tabelle.346</title>
			<path d="M61.88 74.18 L59.37 74.2 L56.87 74.18 A11.7523 11.7523 0 0 1 33.36 74.05 L33.27 74.05 L33.27 74.03 L30.87 74.04
						 L28.48 74.03 L28.48 74.05 L28.39 74.05 A11.7523 11.7523 0 0 1 15.11 85.77 A11.7523 11.7523 0 0 1 10.79 84.31
						 A11.7523 11.7523 0 0 1 4.88 74.05 L0 74.03 A16.6343 16.6343 -180 0 0 10.79 89.69 A16.6343 16.6343 -180 0
						 0 15.11 90.68 A16.6343 16.6343 -180 0 0 30.87 82.71 A16.6343 16.6343 -180 0 0 59.37 82.68 A16.6343 16.6343
						 -180 0 0 90.27 74.03 L85.38 74.05 A11.7523 11.7523 0 0 1 61.88 74.18 Z" class="st2"/>
		</g>
		<g id="shape348-5" transform="translate(72.45,-24.6) scale(-1,1)">
			<title>Eingekerbter Pfeil</title>
			<path d="M0 90.75 L18.45 79.41 L18.45 85.08 L56.25 85.08 L50.58 90.75 L56.25 96.42 L18.45 96.42 L18.45 102.09 L0 90.75
						 Z" class="st2"/>
		</g>
	</g>
</svg>
