<?xml version="1.0" encoding="UTF-8" standalone="no"?>
<!DOCTYPE svg PUBLIC "-//W3C//DTD SVG 1.1//EN" "http://www.w3.org/Graphics/SVG/1.1/DTD/svg11.dtd">
<!-- Generiert durch Microsoft Visio, SVG Export symbol_temperature.svg Zeichenblatt-1 -->
<svg xmlns="http://www.w3.org/2000/svg" xmlns:xlink="http://www.w3.org/1999/xlink" xmlns:ev="http://www.w3.org/2001/xml-events"
		width="0.447917in" height="0.963873in" viewBox="0 0 32.25 69.3989" xml:space="preserve" color-interpolation-filters="sRGB"
		class="st2">
	<style type="text/css">
	<![CDATA[
		.st1 {fill:#004a82;stroke:none;stroke-linecap:round;stroke-linejoin:round;stroke-width:0.75}
		.st2 {fill:none;fill-rule:evenodd;font-size:12px;overflow:visible;stroke-linecap:square;stroke-miterlimit:3}
	]]>
	</style>

	<g>
		<title>Zeichenblatt-1</title>
		<g id="group284-1" transform="translate(0.375,-0.375)">
			<title>Tabelle.284</title>
			<g id="shape272-2" transform="translate(6.19372,-6.19245)">
				<title>Tabelle.272</title>
				<path d="M6.43 40.22 L6.43 50.76 C2.68 52.06 0 55.63 0 59.81 C0 65.1 4.24 69.4 9.53 69.4 C14.81 69.4 19.11 65.1 19.11
							 59.81 C19.11 55.63 16.43 52.06 12.68 50.76 L12.68 40.22 L6.43 40.22 Z" class="st1"/>
			</g>
			<g id="shape278-4">
				<title>Tabelle.278</title>
				<path d="M20.96 10.52 L20.96 43.2 C24.78 45.11 27.39 49.06 27.39 53.62 C27.39 60.04 22.14 65.23 15.72 65.23 C9.29
							 65.23 4.11 60.04 4.11 53.62 C4.11 49.06 6.72 45.11 10.54 43.2 L10.54 10.52 L6.43 10.52 L6.43 40.88 C2.39
							 43.92 0.02 48.53 0 53.56 C-0.02 60.22 4.05 65.79 9.76 68.15 C11.61 68.91 13.6 69.39 15.72 69.4 C17.62
							 69.41 19.46 69.06 21.14 68.45 C27.18 66.24 31.39 60.39 31.5 53.86 C31.58 48.74 29.21 43.99 25.07 40.88
							 L25.07 10.52 L20.96 10.52 Z" class="st1"/>
			</g>
			<g id="shape281-6" transform="translate(6.42838,-58.883)">
				<title>Tabelle.281</title>
				<path d="M4.11 68.86 L4.11 61.2 C3.84 61.38 3.58 61.57 3.33 61.78 C1.32 63.44 0 65.95 0 68.86 L0 69.4 L4.11 69.4
							 L4.11 68.86 Z" class="st1"/>
			</g>
			<g id="shape282-8" transform="translate(10.5395,-59.4201)">
				<title>Tabelle.282</title>
				<path d="M10.42 69.22 L10.42 61.66 C8.93 60.73 7.14 60.22 5.24 60.17 L5.18 60.17 C3.23 60.22 1.48 60.76 0 61.74 L0
							 69.4 C0 67.78 0.72 66.4 1.84 65.47 C2.75 64.73 3.9 64.31 5.18 64.28 C6.28 64.31 7.37 64.61 8.21 65.17
							 C9.53 66.04 10.42 67.51 10.42 69.22 Z" class="st1"/>
			</g>
			<g id="shape283-10" transform="translate(20.9601,-58.883)">
				<title>Tabelle.283</title>
				<path d="M0 68.68 L0 69.4 L4.11 69.4 L4.11 68.44 C4.11 65.37 2.54 62.8 0.18 61.24 C0.12 61.2 0.06 61.16 0 61.13 L0
							 68.68 Z" class="st1"/>
			</g>
		</g>
	</g>
</svg>
