<?xml version="1.0" encoding="UTF-8" standalone="no"?>
<!DOCTYPE svg PUBLIC "-//W3C//DTD SVG 1.1//EN" "http://www.w3.org/Graphics/SVG/1.1/DTD/svg11.dtd">
<!-- Generiert durch Microsoft Visio, SVG Export symbol_temperature.svg Zeichenblatt-1 -->
<svg xmlns="http://www.w3.org/2000/svg" xmlns:xlink="http://www.w3.org/1999/xlink" xmlns:ev="http://www.w3.org/2001/xml-events"
		width="1.26042in" height="1.26042in" viewBox="0 0 90.75 90.75" xml:space="preserve" color-interpolation-filters="sRGB"
		class="st3">
	<style type="text/css">
	<![CDATA[
		.st1 {fill:#004a82;stroke:none;stroke-linecap:round;stroke-linejoin:round;stroke-width:0.75}
		.st2 {fill:none;stroke:none;stroke-linecap:round;stroke-linejoin:round;stroke-width:0.75}
		.st3 {fill:none;fill-rule:evenodd;font-size:12px;overflow:visible;stroke-linecap:square;stroke-miterlimit:3}
	]]>
	</style>

	<g>
		<title>Zeichenblatt-1</title>
		<g id="group284-1" transform="translate(27.375,-4.125)">
			<title>Tabelle.284</title>
			<g id="shape272-2" transform="translate(7.52095,-7.5194)">
				<title>Tabelle.272</title>
				<path d="M7.81 55.32 L7.81 68.12 C3.26 69.69 0 74.02 0 79.11 C0 85.53 5.15 90.75 11.57 90.75 C17.98 90.75 23.21 85.53
							 23.21 79.11 C23.21 74.02 19.95 69.69 15.4 68.12 L15.4 55.32 L7.81 55.32 Z" class="st1"/>
			</g>
			<g id="shape278-4">
				<title>Tabelle.278</title>
				<path d="M25.45 19.25 L25.45 58.94 C30.09 61.25 33.26 66.05 33.26 71.59 C33.26 79.39 26.89 85.69 19.09 85.69 C11.29
							 85.69 4.99 79.39 4.99 71.59 C4.99 66.05 8.16 61.25 12.8 58.94 L12.8 19.25 L7.81 19.25 L7.81 56.12 C2.9
							 59.81 0.02 65.41 0 71.52 C-0.02 79.61 4.92 86.37 11.86 89.23 C14.1 90.16 16.52 90.74 19.09 90.75 C21.4
							 90.76 23.63 90.34 25.67 89.59 C33 86.92 38.12 79.81 38.25 71.88 C38.35 65.67 35.47 59.9 30.44 56.12
							 L30.44 19.25 L25.45 19.25 Z" class="st1"/>
			</g>
			<g id="shape281-6" transform="translate(7.80589,-71.5007)">
				<title>Tabelle.281</title>
				<path d="M4.99 90.1 L4.99 80.8 C4.67 81.01 4.35 81.24 4.05 81.49 C1.6 83.52 0 86.57 0 90.1 L0 90.75 L4.99 90.75 L4.99
							 90.1 Z" class="st1"/>
			</g>
			<g id="shape282-8" transform="translate(12.7979,-72.153)">
				<title>Tabelle.282</title>
				<path d="M12.65 90.53 L12.65 81.36 C10.85 80.22 8.67 79.6 6.36 79.54 L6.29 79.54 C3.92 79.6 1.79 80.26 0 81.45 L0
							 90.75 C0 88.78 0.87 87.11 2.24 85.98 C3.33 85.08 4.73 84.57 6.29 84.53 C7.63 84.57 8.94 84.93 9.97 85.62
							 C11.58 86.67 12.65 88.45 12.65 90.53 Z" class="st1"/>
			</g>
			<g id="shape283-10" transform="translate(25.4515,-71.5007)">
				<title>Tabelle.283</title>
				<path d="M0 89.88 L0 90.75 L4.99 90.75 L4.99 89.59 C4.99 85.86 3.09 82.74 0.21 80.84 C0.14 80.8 0.07 80.75 0 80.7
							 L0 89.88 Z" class="st1"/>
			</g>
		</g>
		<g id="shape306-12" transform="translate(0.375,-0.375)">
			<title>Tabelle.306</title>
			<rect x="0" y="0.75" width="90" height="90" class="st2"/>
		</g>
	</g>
</svg>
