<?xml version="1.0" encoding="UTF-8" standalone="no"?>
<!DOCTYPE svg PUBLIC "-//W3C//DTD SVG 1.1//EN" "http://www.w3.org/Graphics/SVG/1.1/DTD/svg11.dtd">
<!-- Generiert durch Microsoft Visio, SVG Export symbol_cloudcover.svg Zeichenblatt-1 -->
<svg xmlns="http://www.w3.org/2000/svg" xmlns:xlink="http://www.w3.org/1999/xlink" xmlns:ev="http://www.w3.org/2001/xml-events"
		width="1.26042in" height="1.26042in" viewBox="0 0 90.75 90.75" xml:space="preserve" color-interpolation-filters="sRGB"
		class="st3">
	<style type="text/css">
	<![CDATA[
		.st1 {fill:#004a82;stroke:none;stroke-linecap:butt;stroke-width:0.1}
		.st2 {fill:none;stroke:none;stroke-linecap:round;stroke-linejoin:round;stroke-width:0.75}
		.st3 {fill:none;fill-rule:evenodd;font-size:12px;overflow:visible;stroke-linecap:square;stroke-miterlimit:3}
	]]>
	</style>

	<g>
		<title>Zeichenblatt-1</title>
		<g id="shape7-1" transform="translate(1.5,104.625) scale(1,-1)">
			<title>path24</title>
			<path d="M19.31 43.42 L14.26 34.23 L16.65 32.92 L21.72 42.08 L19.31 43.42 ZM11.9 52.44 L3.07 46.87 L4.5 44.54 L13.35
						 50.11 L11.9 52.44 ZM0 62.23 L0 59.49 L10.45 59.49 L10.45 62.23 L0 62.23 ZM55.67 64.59 C62.31 64.59 67.74
						 59.7 68.75 53.35 L69.02 51.45 L70.83 52.14 C71.97 52.57 73.17 52.83 74.42 52.83 C80.07 52.83 84.62 48.3
						 84.62 42.65 C84.62 37.01 80.07 32.45 74.42 32.45 L63.65 32.45 L51.91 32.45 L30.36 32.45 C28.66 32.45 27.24
						 32.81 26.38 33.38 C25.52 33.96 25.06 34.66 25.06 36.13 C25.06 39.06 27.42 41.42 30.36 41.42 C30.84 41.42
						 31.35 41.31 31.89 41.14 L33.89 40.54 L33.89 42.65 L33.89 42.82 C33.89 46.38 36.74 49.23 40.31 49.23 C40.26
						 49.23 40.4 49.2 40.75 49.18 L42.51 49.07 L42.42 50.82 C42.4 51.25 42.37 51.39 42.37 51.29 C42.37 58.65 48.31
						 64.59 55.67 64.59 ZM56.38 76.76 L47.36 71.53 L48.73 69.14 L57.78 74.38 L56.38 76.76 ZM30.74 77.09 C21.37
						 77.09 13.79 69.46 13.79 60.06 C13.79 52.12 19.21 45.48 26.54 43.61 C23.82 42.21 21.94 39.38 21.94 36.13
						 C21.94 33.81 23 31.87 24.62 30.78 C25.95 29.89 27.53 29.5 29.2 29.38 L29.2 29.33 L30.36 29.33 L31.95 29.33
						 L51.91 29.33 L63.65 29.33 L74.42 29.33 C81.76 29.33 87.75 35.31 87.75 42.65 C87.75 49.99 81.76 55.95 74.42
						 55.95 C73.37 55.95 72.37 55.78 71.41 55.54 C69.52 62.52 63.24 67.72 55.67 67.72 C52.43 67.72 49.43 66.77
						 46.89 65.14 C44.74 72.06 38.34 77.09 30.74 77.09 ZM5.32 77.51 L3.98 75.09 L13.11 70.02 L14.43 72.43 L5.32
						 77.51 L5.32 77.51 ZM44.4 87.49 L39.32 78.33 L41.74 76.98 L46.81 86.14 L44.4 87.49 ZM17.25 87.76 L14.92 86.31
						 L20.46 77.42 L22.79 78.88 L17.25 87.76 ZM29.37 90.75 L29.37 80.27 L32.11 80.27 L32.11 90.75 L29.37 90.75
						 Z" class="st1"/>
		</g>
		<g id="shape343-3" transform="translate(0.375,-0.375)">
			<title>Tabelle.343</title>
			<rect x="0" y="0.75" width="90" height="90" class="st2"/>
		</g>
	</g>
</svg>
