<?xml version="1.0" encoding="UTF-8" standalone="no"?>
<!DOCTYPE svg PUBLIC "-//W3C//DTD SVG 1.1//EN" "http://www.w3.org/Graphics/SVG/1.1/DTD/svg11.dtd">
<!-- Generiert durch Microsoft Visio, SVG Export symbol_pressure.svg Zeichenblatt-1 -->
<svg xmlns="http://www.w3.org/2000/svg" xmlns:xlink="http://www.w3.org/1999/xlink" xmlns:ev="http://www.w3.org/2001/xml-events"
		width="1.17026in" height="1.06593in" viewBox="0 0 84.2587 76.7469" xml:space="preserve" color-interpolation-filters="sRGB"
		class="st2">
	<style type="text/css">
	<![CDATA[
		.st1 {fill:none;stroke:none;stroke-linecap:round;stroke-linejoin:round;stroke-width:0.75}
		.st2 {fill:none;fill-rule:evenodd;font-size:12px;overflow:visible;stroke-linecap:square;stroke-miterlimit:3}
	]]>
	</style>

	<g>
		<title>Zeichenblatt-1</title>
		<g id="shape94-1" transform="translate(0.375,-0.375)">
			<title>Tabelle.94</title>
			<rect x="0" y="0.750002" width="83.5087" height="75.9969" class="st1"/>
			<!-- Unsupported Record: EmfPlusRecordTypeSetPixelOffsetMode  -->
			<svg viewBox="0 0 167.02 152.03" clip="rect(0 0 0 0)" height="75.9969" overflow="hidden" preserveAspectRatio="none"
					width="83.5087" x="0" y="0.750002">
				<!-- GetDC -->
				<mask id="mfid1" fill-rule="evenodd" fill="white" stroke="none">
					<rect x="-4.1943e+006" y="-4.1943e+006" width="8.3886e+006" height="8.3886e+006"/>
				</mask>
				<!-- Released DC -->
				<defs>
					<path id="mfid2"
							d="M0.35938,-0.058822 L0.35938,0 C0.55785,-0.000000000000017208 0.71875,-0.1609 0.71875,-0.35938 C0.71875,-0.55785 0.55785,-0.71875 0.35938,-0.71875 L0.35938,-0.65993 C0.52537,-0.65993 0.65993,-0.52537 0.65993,-0.35938 C0.65993,-0.19338 0.52537,-0.058822 0.35938,-0.058822 Z"/>
				</defs>
				<g>
					<g transform="matrix(0, -144, 144, 0, 136.13, 137.26)">
						<g fill="#004a82">
							<use xlink:href="#mfid2" fill-rule="evenodd" stroke="none"/>
							<defs>
								<path id="mfid3"
										d="M0.016142,-0.29209 C0.0093397,-0.28793 0.0045587,-0.28219 0.002018,-0.27539 C-0.0011392,-0.26691 -0.00074297,-0.25712 0.0042817,-0.24842 L0.10365,-0.076316 C0.096794,-0.060245 0.097685,-0.042337 0.10632,-0.027263 C0.11778,-0.0073033 0.13957,0.002334 0.16073,-0.00048013 C0.16759,-0.0013959 0.17436,-0.0034036 0.18072,-0.0070304 C0.18643,-0.010279 0.19134,-0.014502 0.19528,-0.019236 C0.20955,-0.03626 0.21204,-0.061064 0.20109,-0.080786 C0.19249,-0.096241 0.1772,-0.10637 0.15942,-0.10852 L0.059334,-0.28187 C0.054029,-0.29106 0.044902,-0.29605 0.035124,-0.29664 C0.028827,-0.29702 0.022328,-0.29546 0.016318,-0.29219 L0.016142,-0.29209 Z"/>
							</defs>
						</g>
					</g>
					<g transform="matrix(139.09, -37.27, 37.27, 139.09, 67.927, 100.65)">
						<g fill="#004a82">
							<use xlink:href="#mfid3" fill-rule="evenodd" stroke="none"/>
							<defs>
								<path id="mfid4"
										d="M0.18924,-0.30356 L0.10309,-0.24326 C0.28372,0.014778 0.63933,0.077532 0.89737,-0.10309 C1.1554,-0.28372 1.2182,-0.63933 1.0375,-0.89737 C0.8569,-1.1554 0.5013,-1.2182 0.24326,-1.0375 C0.19472,-1.0035 0.15176,-0.96221 0.11595,-0.915 L0.19973,-0.85145 C0.35499,-1.0561 0.64678,-1.0962 0.85145,-0.9409 C1.0561,-0.78563 1.0962,-0.49385 0.9409,-0.28918 C0.78563,-0.08451 0.49385,-0.044461 0.28918,-0.19973 C0.25067,-0.22894 0.21696,-0.26397 0.18924,-0.30356 Z"/>
							</defs>
						</g>
					</g>
					<g transform="matrix(0, -144, 144, 0, 166.51, 166.51)">
						<g fill="#004a82">
							<use xlink:href="#mfid4" fill-rule="evenodd" stroke="none"/>
						</g>
					</g>
				</g>
			</svg>
			<rect x="0" y="0.750002" width="83.5087" height="75.9969" class="st1"/>
		</g>
	</g>
</svg>
