<?xml version="1.0" encoding="UTF-8" standalone="no"?>
<!DOCTYPE svg PUBLIC "-//W3C//DTD SVG 1.1//EN" "http://www.w3.org/Graphics/SVG/1.1/DTD/svg11.dtd">
<!-- Generiert durch Microsoft Visio, SVG Export symbol_humidity.svg Zeichenblatt-1 -->
<svg xmlns="http://www.w3.org/2000/svg" xmlns:xlink="http://www.w3.org/1999/xlink" xmlns:ev="http://www.w3.org/2001/xml-events"
		width="1.26042in" height="1.26042in" viewBox="0 0 90.75 90.75" xml:space="preserve" color-interpolation-filters="sRGB"
		class="st5">
	<style type="text/css">
	<![CDATA[
		.st1 {fill:#004a82;stroke:none;stroke-linecap:round;stroke-linejoin:round;stroke-width:0.75}
		.st2 {stroke:none;stroke-linecap:round;stroke-linejoin:round;stroke-width:0.75}
		.st3 {fill:#004a82;font-family:Calibri;font-size:3.99971em}
		.st4 {fill:none;stroke:none;stroke-linecap:round;stroke-linejoin:round;stroke-width:0.75}
		.st5 {fill:none;fill-rule:evenodd;font-size:12px;overflow:visible;stroke-linecap:square;stroke-miterlimit:3}
	]]>
	</style>

	<g>
		<title>Zeichenblatt-1</title>
		<g id="group238-1" transform="translate(7.125,-7.70722)">
			<title>Tabelle.238</title>
			<g id="shape126-2" transform="translate(47.7498,-31.6392)">
				<title>Tabelle.126</title>
				<path d="M1.43 73.69 C1.16 74.14 0.95 74.59 0.74 75.08 C-1.76 81.31 2.3 88.06 9.83 90.14 C17.37 92.25 25.5 88.85
							 28 82.61 C29.02 80.11 28.99 77.37 27.94 74.87 C27.88 74.75 27.82 74.62 27.76 74.47 L14.96 45.91 L1.43
							 73.69 Z" class="st1"/>
			</g>
			<g id="shape127-4" transform="translate(6.8367,-2.9892)">
				<title>Tabelle.127</title>
				<desc>%</desc>
				<path d="M50.08 35.21 L0 35.21 L0 90.75 L50.08 90.75 L50.08 35.21" class="st2"/>
				<text x="7.89" y="77.38" class="st3">%</text>			</g>
			<g id="shape128-8">
				<title>Tabelle.128</title>
				<path d="M48.64 36.87 L52.19 32.11 C37.76 21.29 17.28 24.27 6.49 38.74 C-4.29 53.2 -1.34 73.66 13.12 84.45 C27.58
							 95.26 48.03 92.28 58.85 77.82 C62.43 73.03 64.63 67.3 65.18 61.34 L59.27 60.76 C57.89 75.47 44.87 86.25
							 30.17 84.87 C15.47 83.51 4.68 70.47 6.07 55.79 C7.46 41.09 20.47 30.3 35.14 31.69 C40.05 32.14 44.72
							 33.92 48.64 36.87 Z" class="st1"/>
			</g>
		</g>
		<g id="shape309-10" transform="translate(0.375,-0.375)">
			<title>Tabelle.309</title>
			<rect x="0" y="0.75" width="90" height="90" class="st4"/>
		</g>
	</g>
</svg>
