<?xml version="1.0" encoding="UTF-8" standalone="no"?>
<!DOCTYPE svg PUBLIC "-//W3C//DTD SVG 1.1//EN" "http://www.w3.org/Graphics/SVG/1.1/DTD/svg11.dtd">
<!-- Generiert durch Microsoft Visio, SVG Export symbol_globalrad.svg Zeichenblatt-1 -->
<svg xmlns="http://www.w3.org/2000/svg" xmlns:xlink="http://www.w3.org/1999/xlink" xmlns:ev="http://www.w3.org/2001/xml-events"
		width="1.26042in" height="1.26042in" viewBox="0 0 90.75 90.75" xml:space="preserve" color-interpolation-filters="sRGB"
		class="st3">
	<style type="text/css">
	<![CDATA[
		.st1 {fill:#004a82;stroke:none;stroke-linecap:butt;stroke-width:0.1}
		.st2 {fill:none;stroke:none;stroke-linecap:round;stroke-linejoin:round;stroke-width:0.75}
		.st3 {fill:none;fill-rule:evenodd;font-size:12px;overflow:visible;stroke-linecap:square;stroke-miterlimit:3}
	]]>
	</style>

	<g>
		<title>Zeichenblatt-1</title>
		<g id="shape60-1" transform="translate(2.8495,93.5995) scale(1,-1)">
			<title>path30</title>
			<path d="M40.42 20.21 L40.42 5.7 L44.23 5.7 L44.23 20.21 L40.42 20.21 ZM26.74 25.21 L19.72 12.5 L23.04 10.67 L30.06 23.37
						 L26.74 25.21 ZM58.34 25.29 L55.04 23.4 L62.27 10.83 L65.57 12.74 L58.34 25.29 ZM67.96 36.88 L66.1 33.55
						 L78.75 26.51 L80.61 29.86 L67.96 36.88 ZM16.5 37.7 L4.25 30.02 L6.25 26.77 L18.5 34.48 L16.5 37.7 ZM70.59
						 51.04 L70.59 47.21 L85.05 47.21 L85.05 51.04 L70.59 51.04 ZM0 51.25 L0 47.45 L14.46 47.45 L14.46 51.25 L0
						 51.25 ZM78.09 71.4 L65.57 64.14 L67.45 60.82 L79.97 68.08 L78.09 71.4 ZM42.58 71.85 C29.61 71.85 19.08 61.29
						 19.08 48.28 C19.08 35.26 29.61 24.7 42.58 24.7 C55.54 24.7 66.05 35.26 66.05 48.28 C66.05 61.29 55.54 71.85
						 42.58 71.85 ZM7.36 72.41 L5.5 69.06 L18.12 62.04 L19.99 65.37 L7.36 72.41 ZM61.47 86.23 L54.46 73.55 L57.81
						 71.69 L64.8 84.37 L61.47 86.23 ZM23.89 86.6 L20.68 84.58 L28.33 72.3 L31.55 74.3 L23.89 86.6 ZM40.66 90.75
						 L40.66 76.24 L44.46 76.24 L44.46 90.75 L40.66 90.75 Z" class="st1"/>
		</g>
		<g id="shape344-3" transform="translate(0.375,-0.375)">
			<title>Tabelle.344</title>
			<rect x="0" y="0.75" width="90" height="90" class="st2"/>
		</g>
	</g>
</svg>
