<?xml version="1.0" encoding="UTF-8" standalone="no"?>
<!DOCTYPE svg PUBLIC "-//W3C//DTD SVG 1.1//EN" "http://www.w3.org/Graphics/SVG/1.1/DTD/svg11.dtd">
<!-- Generiert durch Microsoft Visio, SVG Export symbol_level.svg Zeichenblatt-1 -->
<svg xmlns="http://www.w3.org/2000/svg" xmlns:xlink="http://www.w3.org/1999/xlink" xmlns:ev="http://www.w3.org/2001/xml-events"
		width="1.26042in" height="1.26042in" viewBox="0 0 90.75 90.75" xml:space="preserve" color-interpolation-filters="sRGB"
		class="st7">
	<style type="text/css">
	<![CDATA[
		.st1 {fill:#004a82;stroke:none;stroke-linecap:round;stroke-linejoin:round;stroke-width:0.24}
		.st2 {fill:#004a82;stroke:none;stroke-linecap:round;stroke-linejoin:round;stroke-width:4.5}
		.st3 {fill:#ffffff;stroke:none;stroke-linecap:round;stroke-linejoin:round;stroke-width:4.5}
		.st4 {fill:#ffffff;stroke:none;stroke-linecap:round;stroke-linejoin:round;stroke-width:0.75}
		.st5 {fill:#004a82;stroke:none;stroke-linecap:round;stroke-linejoin:round;stroke-width:0.75}
		.st6 {fill:none;stroke:none;stroke-linecap:round;stroke-linejoin:round;stroke-width:0.75}
		.st7 {fill:none;fill-rule:evenodd;font-size:12px;overflow:visible;stroke-linecap:square;stroke-miterlimit:3}
	]]>
	</style>

	<g>
		<title>Zeichenblatt-1</title>
		<g id="shape167-1" transform="translate(119.501,14.8254) rotate(90)">
			<title>Kreisdiagrammbogen</title>
			<path d="M16.57 85.87 L16.54 90.75 A16.6343 16.6343 -180 0 0 16.73 57.48 L16.7 62.36 A11.7523 11.7523 0 0 1 16.57 85.87
						 Z" class="st1"/>
		</g>
		<g id="shape168-3" transform="translate(148.02,14.8254) rotate(90)">
			<title>Kreisdiagrammbogen.168</title>
			<path d="M16.7 85.87 L16.73 90.75 A16.6343 16.6343 -180 0 0 16.54 57.48 L16.57 62.36 A11.7523 11.7523 0 0 1 16.7 85.87
						 Z" class="st1"/>
		</g>
		<g id="shape176-5" transform="translate(0.271657,-43.7158)">
			<title>Tabelle.176</title>
			<path d="M10.79 85.37 A11.7523 11.7523 0 0 1 4.88 75.11 L0 75.09 A16.6343 16.6343 -180 0 0 10.79 90.75 L10.79 85.37 Z"
					class="st1"/>
		</g>
		<g id="shape178-7" transform="translate(15.3805,-42.6561)">
			<title>Tabelle.178</title>
			<path d="M0 85.77 L0 90.68 A16.6343 16.6343 -180 0 0 18.16 74.03 L13.28 74.05 A11.7523 11.7523 0 0 1 -0 85.77 Z"
					class="st1"/>
		</g>
		<g id="shape179-9" transform="translate(11.0637,-42.7262)">
			<title>Tabelle.179</title>
			<path d="M4.32 85.84 A11.7523 11.7523 0 0 1 0 84.38 L0 89.76 A16.6343 16.6343 -180 0 0 4.32 90.75 L4.32 85.84 Z"
					class="st1"/>
		</g>
		<g id="shape201-11" transform="translate(11.0637,-42.7262)">
			<title>Tabelle.201</title>
			<path d="M4.32 85.84 A11.7523 11.7523 0 0 1 0 84.38 L0 89.76 A16.6343 16.6343 -180 0 0 4.32 90.75 L4.32 85.84 Z"
					class="st2"/>
		</g>
		<g id="shape210-13" transform="translate(52.1371,-44.0881)">
			<title>Tabelle.210</title>
			<path d="M4.8 87.51 A16.6343 16.6343 0 0 1 -0 90.75 L7.49 90.75 L7.49 87.51 L4.8 87.51 Z" class="st3"/>
		</g>
		<g id="shape211-15" transform="translate(43.4397,-2.53888)">
			<title>Tabelle.211</title>
			<path d="M13.5 45.96 L16.19 45.96 L16.19 49.2 L8.7 49.2 A16.6343 16.6343 0 0 1 0 50.52 L0 58.91 L10.79 58.91 L10.79 62.15
						 L0 62.15 L0 71.86 L16.19 71.86 L16.19 75.1 L0 75.1 L0 90.75 L25.9 90.75 L25.9 49.99 A16.6343 16.6343 0 0
						 1 16.2 42.56 A16.6343 16.6343 0 0 1 13.5 45.96 Z" class="st2"/>
		</g>
		<g id="shape216-17" transform="translate(43.4397,-50.9298)">
			<title>Tabelle.216</title>
			<path d="M10 84.64 L0 84.64 L0 90.52 A8.36049 8.36049 -180 0 0 10 84.64 Z" class="st2"/>
		</g>
		<g id="shape219-19" transform="translate(54.0968,-59.197)">
			<title>Tabelle.219</title>
			<path d="M0 89.67 L0 90.75 L11.43 90.75 A8.38036 8.38036 0 0 1 11.43 90.61 L7.92 90.59 L7.92 90.57 L5.55 90.58 L3.17
						 90.57 L3.17 90.59 L0.13 90.61 L0.13 89.67 L0 89.67 Z" class="st4"/>
		</g>
		<g id="shape225-21" transform="translate(43.4397,-52.2616)">
			<title>Tabelle.225</title>
			<path d="M22.09 82.74 L22.09 83.81 L22.08 83.81 A8.38036 8.38036 -180 0 0 25.9 90.75 L25.9 54.14 L0 54.14 L0 69.78 L16.19
						 69.78 L16.19 73.02 L0 73.02 L0 82.74 L10.62 82.74 L10.62 81.52 L22.09 81.52 L22.09 82.16 L22.09 82.74 Z"
					class="st5"/>
		</g>
		<g id="shape313-23" transform="translate(0.375,-0.375)">
			<title>Tabelle.313</title>
			<rect x="0" y="0.75" width="90" height="90" class="st6"/>
		</g>
	</g>
</svg>
