<?xml version="1.0" encoding="UTF-8" standalone="no"?>
<!DOCTYPE svg PUBLIC "-//W3C//DTD SVG 1.1//EN" "http://www.w3.org/Graphics/SVG/1.1/DTD/svg11.dtd">
<!-- Generiert durch Microsoft Visio, SVG Export cloudcover.svg Zeichenblatt-1 -->
<svg xmlns="http://www.w3.org/2000/svg" xmlns:xlink="http://www.w3.org/1999/xlink" xmlns:ev="http://www.w3.org/2001/xml-events"
		width="1.61529in" height="1.13153in" viewBox="0 0 116.301 81.47" xml:space="preserve" color-interpolation-filters="sRGB"
		class="st2">
	<style type="text/css">
	<![CDATA[
		.st1 {fill:#004a82;stroke:none;stroke-linecap:butt;stroke-width:0.1}
		.st2 {fill:none;fill-rule:evenodd;font-size:12px;overflow:visible;stroke-linecap:square;stroke-miterlimit:3}
	]]>
	</style>

	<g>
		<title>Zeichenblatt-1</title>
		<g id="shape7-1" transform="translate(0.1,81.57) scale(1,-1)">
			<title>path24</title>
			<path d="M25.54 18.85 L18.87 6.69 L22.02 4.95 L28.73 17.07 L25.54 18.85 ZM15.75 30.78 L4.06 23.42 L5.95 20.34 L17.67
						 27.7 L15.75 30.78 ZM0 43.74 L0 40.11 L13.82 40.11 L13.82 43.74 L0 43.74 ZM73.65 46.86 C82.44 46.86 89.63
						 40.39 90.96 31.98 L91.32 29.48 L93.71 30.39 C95.23 30.96 96.81 31.29 98.47 31.29 C105.94 31.29 111.97 25.3
						 111.97 17.83 C111.97 10.36 105.94 4.34 98.47 4.34 L84.21 4.34 L68.68 4.34 L40.16 4.34 C37.92 4.34 36.04
						 4.81 34.9 5.57 C33.77 6.33 33.16 7.25 33.16 9.2 C33.16 13.08 36.27 16.2 40.16 16.2 C40.81 16.2 41.48 16.05
						 42.2 15.84 L44.84 15.04 L44.84 17.83 L44.84 18.05 C44.84 22.77 48.61 26.54 53.34 26.54 C53.26 26.54 53.45
						 26.5 53.92 26.47 L56.24 26.32 L56.13 28.64 C56.1 29.21 56.05 29.39 56.05 29.26 C56.05 38.99 63.91 46.86
						 73.65 46.86 ZM74.59 62.97 L62.66 56.04 L64.47 52.88 L76.45 59.81 L74.59 62.97 ZM40.67 63.4 C28.28 63.4 18.25
						 53.31 18.25 40.87 C18.25 30.36 25.42 21.58 35.12 19.1 C31.52 17.25 29.03 13.51 29.03 9.2 C29.03 6.13 30.43
						 3.56 32.58 2.12 C34.33 0.95 36.42 0.43 38.64 0.27 L38.64 0.2 L40.16 0.2 L42.27 0.2 L68.68 0.2 L84.21 0.2
						 L98.47 0.2 C108.18 0.2 116.1 8.12 116.1 17.83 C116.1 27.54 108.18 35.43 98.47 35.43 C97.07 35.43 95.76 35.2
						 94.48 34.88 C91.98 44.12 83.67 50.99 73.65 50.99 C69.37 50.99 65.4 49.74 62.04 47.58 C59.2 56.74 50.72 63.4
						 40.67 63.4 ZM7.04 63.95 L5.26 60.75 L17.34 54.04 L19.09 57.23 L7.04 63.95 L7.04 63.95 ZM58.74 77.15 L52.03
						 65.03 L55.22 63.26 L61.93 75.37 L58.74 77.15 ZM22.82 77.52 L19.74 75.59 L27.07 63.84 L30.15 65.76 L22.82
						 77.52 ZM38.86 81.47 L38.86 67.61 L42.49 67.61 L42.49 81.47 L38.86 81.47 Z" class="st1"/>
		</g>
	</g>
</svg>
