<?xml version="1.0" encoding="UTF-8" standalone="no"?>
<!DOCTYPE svg PUBLIC "-//W3C//DTD SVG 1.1//EN" "http://www.w3.org/Graphics/SVG/1.1/DTD/svg11.dtd">
<!-- Generiert durch Microsoft Visio, SVG Export symbol_wind.svg Zeichenblatt-1 -->
<svg xmlns="http://www.w3.org/2000/svg" xmlns:xlink="http://www.w3.org/1999/xlink" xmlns:ev="http://www.w3.org/2001/xml-events"
		width="1.26042in" height="1.26042in" viewBox="0 0 90.75 90.75" xml:space="preserve" color-interpolation-filters="sRGB"
		class="st4">
	<style type="text/css">
	<![CDATA[
		.st1 {fill:#004a82;stroke:none;stroke-linecap:round;stroke-linejoin:round;stroke-width:0.75}
		.st2 {stroke:#004a82;stroke-linecap:round;stroke-linejoin:round;stroke-width:1.5}
		.st3 {fill:none;stroke:none;stroke-linecap:round;stroke-linejoin:round;stroke-width:0.75}
		.st4 {fill:none;fill-rule:evenodd;font-size:12px;overflow:visible;stroke-linecap:square;stroke-miterlimit:3}
	]]>
	</style>

	<g>
		<title>Zeichenblatt-1</title>
		<g id="shape285-1" transform="translate(102.286,78.1368) rotate(90) scale(-1,1)">
			<title>Tabelle.285</title>
			<rect x="0" y="83.8721" width="67.454" height="6.87787" rx="3.43894" ry="3.43894" class="st1"/>
		</g>
		<g id="shape286-3" transform="translate(28.5448,-9.17424) scale(-1,1)">
			<title>Tabelle.286</title>
			<rect x="0" y="83.8721" width="26.4198" height="6.87787" rx="3.43894" ry="3.43894" class="st1"/>
		</g>
		<g id="shape288-5" transform="translate(15.6982,-41.4347)">
			<title>Tabelle.288</title>
			<path d="M16.99 54.72 L0 72.02 L16.99 90.75" class="st2"/>
		</g>
		<g id="shape295-8" transform="translate(32.4205,-38.944)">
			<title>Tabelle.295</title>
			<path d="M14.59 52.97 L0 49.32 L0 90.75 L14.59 86.95 L14.59 52.97 Z" class="st1"/>
		</g>
		<g id="shape299-10" transform="translate(51.8127,-43.9941)">
			<title>Tabelle.299</title>
			<path d="M14.41 62.82 L0 59.22 L0 90.75 L14.41 87 L14.41 62.82 Z" class="st1"/>
		</g>
		<g id="shape302-12" transform="translate(71.0271,-48.9978)">
			<title>Tabelle.302</title>
			<path d="M0 69.02 L0 90.75 L16.63 86.42 L16.63 73.18 L0 69.02 Z" class="st1"/>
		</g>
		<g id="shape307-14" transform="translate(0.375,-0.375)">
			<title>Tabelle.307</title>
			<rect x="0" y="0.75" width="90" height="90" class="st3"/>
		</g>
	</g>
</svg>
