<?xml version="1.0" encoding="UTF-8" standalone="no"?>
<!DOCTYPE svg PUBLIC "-//W3C//DTD SVG 1.1//EN" "http://www.w3.org/Graphics/SVG/1.1/DTD/svg11.dtd">
<!-- Generiert durch Microsoft Visio, SVG Export symbol_rain.svg Zeichenblatt-1 -->
<svg xmlns="http://www.w3.org/2000/svg" xmlns:xlink="http://www.w3.org/1999/xlink" xmlns:ev="http://www.w3.org/2001/xml-events"
		width="1.26042in" height="1.26042in" viewBox="0 0 90.75 90.75" xml:space="preserve" color-interpolation-filters="sRGB"
		class="st3">
	<style type="text/css">
	<![CDATA[
		.st1 {fill:#004a82;stroke:none;stroke-linecap:butt;stroke-width:1}
		.st2 {fill:none;stroke:none;stroke-linecap:round;stroke-linejoin:round;stroke-width:0.75}
		.st3 {fill:none;fill-rule:evenodd;font-size:12px;overflow:visible;stroke-linecap:square;stroke-miterlimit:3}
	]]>
	</style>

	<g>
		<title>Zeichenblatt-1</title>
		<g id="shape3-1" transform="translate(2.625,97.875) scale(1,-1)">
			<title>path16</title>
			<path d="M64.21 37.37 L56.51 16.18 L58.17 15.56 L66.1 37.37 L64.21 37.37 ZM55.39 37.37 L47.67 16.18 L49.32 15.56 L57.26
						 37.37 L55.39 37.37 ZM46.57 37.37 L38.85 16.18 L40.51 15.56 L48.44 37.37 L46.57 37.37 ZM37.73 37.37 L30.01
						 16.18 L31.66 15.56 L39.6 37.37 L37.73 37.37 ZM28.91 37.37 L21.19 16.18 L22.84 15.56 L30.78 37.37 L28.91
						 37.37 ZM20.07 37.37 L12.34 16.18 L14 15.56 L21.96 37.37 L20.07 37.37 ZM43.87 90.75 C32.68 90.75 23.59 81.69
						 23.59 70.5 C23.59 70.24 23.66 70 23.67 69.75 C23.42 69.77 23.18 69.83 22.92 69.83 C16.9 69.83 12.02 64.95
						 12.02 58.93 C12.02 58.85 12.05 58.76 12.05 58.69 C11.19 58.95 10.29 59.14 9.35 59.14 C4.19 59.14 0 54.95
						 0 49.79 C0 44.62 4.19 42.66 9.35 42.66 L38.74 42.66 L54.75 42.66 L69.47 42.66 C78.32 42.66 85.5 49.83 85.5
						 58.69 C85.5 67.54 78.33 74.72 69.47 74.72 C67.47 74.72 65.56 74.32 63.81 73.65 C62.28 83.33 53.98 90.75
						 43.87 90.75 Z" class="st1"/>
		</g>
		<g id="shape342-3" transform="translate(0.375,-0.375)">
			<title>Tabelle.342</title>
			<rect x="0" y="0.75" width="90" height="90" class="st2"/>
		</g>
	</g>
</svg>
