<?xml version="1.0" encoding="UTF-8" standalone="no"?>
<!DOCTYPE svg PUBLIC "-//W3C//DTD SVG 1.1//EN" "http://www.w3.org/Graphics/SVG/1.1/DTD/svg11.dtd">
<!-- Generiert durch Microsoft Visio, SVG Export symbol_pressure.svg Zeichenblatt-1 -->
<svg xmlns="http://www.w3.org/2000/svg" xmlns:xlink="http://www.w3.org/1999/xlink" xmlns:ev="http://www.w3.org/2001/xml-events"
		width="1.26042in" height="1.26042in" viewBox="0 0 90.75 90.75" xml:space="preserve" color-interpolation-filters="sRGB"
		class="st3">
	<style type="text/css">
	<![CDATA[
		.st1 {fill:none;stroke:none;stroke-linecap:round;stroke-linejoin:round;stroke-width:0.75}
		.st2 {fill:#004a82;stroke:none;stroke-linecap:round;stroke-linejoin:round;stroke-width:0.75}
		.st3 {fill:none;fill-rule:evenodd;font-size:12px;overflow:visible;stroke-linecap:square;stroke-miterlimit:3}
	]]>
	</style>

	<g>
		<title>Zeichenblatt-1</title>
		<g id="shape305-1" transform="translate(0.375,-0.375)">
			<title>Tabelle.305</title>
			<rect x="0" y="0.75" width="90" height="90" class="st1"/>
		</g>
		<g id="group310-3" transform="translate(6.75,-11.2506)">
			<title>Tabelle.310</title>
			<g id="shape106-4" transform="translate(14.2975,-31.0926)">
				<title>Tabelle.106</title>
				<path d="M44.68 90.75 L48.68 90.75 C48.68 77.29 37.77 66.42 24.34 66.42 C10.88 66.42 -0 77.29 0 90.75 L3.97 90.75
							 C3.97 79.49 13.08 70.38 24.34 70.38 C35.57 70.38 44.68 79.49 44.68 90.75 Z" class="st2"/>
			</g>
			<g id="shape107-6" transform="translate(26.1912,-26.5563)">
				<title>Tabelle.107</title>
				<path d="M0.63 73.93 C0.25 74.34 0.04 74.78 0.01 75.28 C-0.05 75.9 0.13 76.52 0.63 76.99 L10.12 86.51 C9.98 87.68
							 10.33 88.83 11.18 89.68 C12.27 90.77 13.86 91.03 15.21 90.47 C15.62 90.3 16.03 90.03 16.38 89.68 C16.71
							 89.39 16.94 89.03 17.12 88.65 C17.76 87.27 17.5 85.63 16.44 84.51 C15.59 83.66 14.41 83.27 13.21 83.42
							 L3.63 73.84 C3.13 73.34 2.45 73.17 1.8 73.31 C1.36 73.4 0.98 73.61 0.63 73.93 Z" class="st2"/>
			</g>
			<g id="shape108-8">
				<title>Tabelle.108</title>
				<path d="M56.68 84.93 L60.77 90.75 C78.26 78.52 82.49 54.46 70.26 36.97 C58.04 19.51 33.96 15.25 16.47 27.48 C-0.99
							 39.7 -5.25 63.8 6.98 81.26 C9.27 84.55 12.09 87.46 15.27 89.87 L19.59 84.2 C5.71 73.7 3.01 53.93 13.53
							 40.08 C24.03 26.21 43.81 23.51 57.65 34.03 C71.53 44.52 74.23 64.3 63.71 78.14 C61.74 80.76 59.36 83.05
							 56.68 84.93 Z" class="st2"/>
			</g>
		</g>
	</g>
</svg>
